<?xml version="1.0" standalone="no"?>
<svg xmlns="http://www.w3.org/2000/svg" width="1024" height="1024" viewBox="0 0 1024 1024"><defs><clipPath id="clip-path-dot-color"><rect x="62" y="558" width="31" height="31" transform="rotate(0,77.5,573.5)"/><rect x="62" y="620" width="31" height="31" transform="rotate(0,77.5,635.5)"/><rect x="62" y="682" width="31" height="31" transform="rotate(0,77.5,697.5)"/><rect x="93" y="310" width="31" height="31" transform="rotate(0,108.5,325.5)"/><rect x="93" y="434" width="31" height="31" transform="rotate(0,108.5,449.5)"/><rect x="93" y="527" width="31" height="31" transform="rotate(0,108.5,542.5)"/><rect x="93" y="558" width="31" height="31" transform="rotate(0,108.5,573.5)"/><rect x="93" y="620" width="31" height="31" transform="rotate(0,108.5,635.5)"/><rect x="93" y="651" width="31" height="31" transform="rotate(0,108.5,666.5)"/><rect x="93" y="682" width="31" height="31" transform="rotate(0,108.5,697.5)"/><rect x="124" y="310" width="31" height="31" transform="rotate(0,139.5,325.5)"/><rect x="124" y="341" width="31" height="31" transform="rotate(0,139.5,356.5)"/><rect x="124" y="403" width="31" height="31" transform="rotate(0,139.5,418.5)"/><rect x="124" y="496" width="31" height="31" transform="rotate(0,139.5,511.5)"/><rect x="124" y="558" width="31" height="31" transform="rotate(0,139.5,573.5)"/><rect x="124" y="682" width="31" height="31" transform="rotate(0,139.5,697.5)"/><rect x="155" y="372" width="31" height="31" transform="rotate(0,170.5,387.5)"/><rect x="155" y="496" width="31" height="31" transform="rotate(0,170.5,511.5)"/><rect x="155" y="527" width="31" height="31" transform="rotate(0,170.5,542.5)"/><rect x="155" y="589" width="31" height="31" transform="rotate(0,170.5,604.5)"/><rect x="155" y="651" width="31" height="31" transform="rotate(0,170.5,666.5)"/><rect x="186" y="341" width="31" height="31" transform="rotate(0,201.5,356.5)"/><rect x="186" y="372" width="31" height="31" transform="rotate(0,201.5,387.5)"/><rect x="186" y="434" width="31" height="31" transform="rotate(0,201.5,449.5)"/><rect x="186" y="465" width="31" height="31" transform="rotate(0,201.5,480.5)"/><rect x="186" y="496" width="31" height="31" transform="rotate(0,201.5,511.5)"/><rect x="186" y="589" width="31" height="31" transform="rotate(0,201.5,604.5)"/><rect x="186" y="620" width="31" height="31" transform="rotate(0,201.5,635.5)"/><rect x="186" y="651" width="31" height="31" transform="rotate(0,201.5,666.5)"/><rect x="217" y="341" width="31" height="31" transform="rotate(0,232.5,356.5)"/><rect x="217" y="372" width="31" height="31" transform="rotate(0,232.5,387.5)"/><rect x="217" y="403" width="31" height="31" transform="rotate(0,232.5,418.5)"/><rect x="217" y="558" width="31" height="31" transform="rotate(0,232.5,573.5)"/><rect x="217" y="651" width="31" height="31" transform="rotate(0,232.5,666.5)"/><rect x="248" y="310" width="31" height="31" transform="rotate(0,263.5,325.5)"/><rect x="248" y="372" width="31" height="31" transform="rotate(0,263.5,387.5)"/><rect x="248" y="434" width="31" height="31" transform="rotate(0,263.5,449.5)"/><rect x="248" y="496" width="31" height="31" transform="rotate(0,263.5,511.5)"/><rect x="248" y="558" width="31" height="31" transform="rotate(0,263.5,573.5)"/><rect x="248" y="620" width="31" height="31" transform="rotate(0,263.5,635.5)"/><rect x="248" y="682" width="31" height="31" transform="rotate(0,263.5,697.5)"/><rect x="279" y="341" width="31" height="31" transform="rotate(0,294.5,356.5)"/><rect x="279" y="372" width="31" height="31" transform="rotate(0,294.5,387.5)"/><rect x="279" y="403" width="31" height="31" transform="rotate(0,294.5,418.5)"/><rect x="279" y="465" width="31" height="31" transform="rotate(0,294.5,480.5)"/><rect x="279" y="496" width="31" height="31" transform="rotate(0,294.5,511.5)"/><rect x="279" y="527" width="31" height="31" transform="rotate(0,294.5,542.5)"/><rect x="279" y="558" width="31" height="31" transform="rotate(0,294.5,573.5)"/><rect x="279" y="589" width="31" height="31" transform="rotate(0,294.5,604.5)"/><rect x="279" y="620" width="31" height="31" transform="rotate(0,294.5,635.5)"/><rect x="279" y="651" width="31" height="31" transform="rotate(0,294.5,666.5)"/><rect x="279" y="682" width="31" height="31" transform="rotate(0,294.5,697.5)"/><rect x="310" y="93" width="31" height="31" transform="rotate(0,325.5,108.5)"/><rect x="310" y="124" width="31" height="31" transform="rotate(0,325.5,139.5)"/><rect x="310" y="155" width="31" height="31" transform="rotate(0,325.5,170.5)"/><rect x="310" y="217" width="31" height="31" transform="rotate(0,325.5,232.5)"/><rect x="310" y="248" width="31" height="31" transform="rotate(0,325.5,263.5)"/><rect x="310" y="341" width="31" height="31" transform="rotate(0,325.5,356.5)"/><rect x="310" y="372" width="31" height="31" transform="rotate(0,325.5,387.5)"/><rect x="310" y="403" width="31" height="31" transform="rotate(0,325.5,418.5)"/><rect x="310" y="434" width="31" height="31" transform="rotate(0,325.5,449.5)"/><rect x="310" y="496" width="31" height="31" transform="rotate(0,325.5,511.5)"/><rect x="310" y="527" width="31" height="31" transform="rotate(0,325.5,542.5)"/><rect x="310" y="651" width="31" height="31" transform="rotate(0,325.5,666.5)"/><rect x="310" y="868" width="31" height="31" transform="rotate(0,325.5,883.5)"/><rect x="310" y="899" width="31" height="31" transform="rotate(0,325.5,914.5)"/><rect x="341" y="124" width="31" height="31" transform="rotate(0,356.5,139.5)"/><rect x="341" y="186" width="31" height="31" transform="rotate(0,356.5,201.5)"/><rect x="341" y="217" width="31" height="31" transform="rotate(0,356.5,232.5)"/><rect x="341" y="372" width="31" height="31" transform="rotate(0,356.5,387.5)"/><rect x="341" y="403" width="31" height="31" transform="rotate(0,356.5,418.5)"/><rect x="341" y="465" width="31" height="31" transform="rotate(0,356.5,480.5)"/><rect x="341" y="496" width="31" height="31" transform="rotate(0,356.5,511.5)"/><rect x="341" y="589" width="31" height="31" transform="rotate(0,356.5,604.5)"/><rect x="341" y="713" width="31" height="31" transform="rotate(0,356.5,728.5)"/><rect x="341" y="744" width="31" height="31" transform="rotate(0,356.5,759.5)"/><rect x="341" y="775" width="31" height="31" transform="rotate(0,356.5,790.5)"/><rect x="341" y="806" width="31" height="31" transform="rotate(0,356.5,821.5)"/><rect x="341" y="837" width="31" height="31" transform="rotate(0,356.5,852.5)"/><rect x="341" y="930" width="31" height="31" transform="rotate(0,356.5,945.5)"/><rect x="372" y="62" width="31" height="31" transform="rotate(0,387.5,77.5)"/><rect x="372" y="155" width="31" height="31" transform="rotate(0,387.5,170.5)"/><rect x="372" y="186" width="31" height="31" transform="rotate(0,387.5,201.5)"/><rect x="372" y="248" width="31" height="31" transform="rotate(0,387.5,263.5)"/><rect x="372" y="279" width="31" height="31" transform="rotate(0,387.5,294.5)"/><rect x="372" y="341" width="31" height="31" transform="rotate(0,387.5,356.5)"/><rect x="372" y="372" width="31" height="31" transform="rotate(0,387.5,387.5)"/><rect x="372" y="403" width="31" height="31" transform="rotate(0,387.5,418.5)"/><rect x="372" y="465" width="31" height="31" transform="rotate(0,387.5,480.5)"/><rect x="372" y="527" width="31" height="31" transform="rotate(0,387.5,542.5)"/><rect x="372" y="589" width="31" height="31" transform="rotate(0,387.5,604.5)"/><rect x="372" y="682" width="31" height="31" transform="rotate(0,387.5,697.5)"/><rect x="372" y="744" width="31" height="31" transform="rotate(0,387.5,759.5)"/><rect x="372" y="837" width="31" height="31" transform="rotate(0,387.5,852.5)"/><rect x="372" y="868" width="31" height="31" transform="rotate(0,387.5,883.5)"/><rect x="372" y="899" width="31" height="31" transform="rotate(0,387.5,914.5)"/><rect x="403" y="62" width="31" height="31" transform="rotate(0,418.5,77.5)"/><rect x="403" y="155" width="31" height="31" transform="rotate(0,418.5,170.5)"/><rect x="403" y="217" width="31" height="31" transform="rotate(0,418.5,232.5)"/><rect x="403" y="372" width="31" height="31" transform="rotate(0,418.5,387.5)"/><rect x="403" y="403" width="31" height="31" transform="rotate(0,418.5,418.5)"/><rect x="403" y="620" width="31" height="31" transform="rotate(0,418.5,635.5)"/><rect x="403" y="775" width="31" height="31" transform="rotate(0,418.5,790.5)"/><rect x="403" y="930" width="31" height="31" transform="rotate(0,418.5,945.5)"/><rect x="434" y="155" width="31" height="31" transform="rotate(0,449.5,170.5)"/><rect x="434" y="186" width="31" height="31" transform="rotate(0,449.5,201.5)"/><rect x="434" y="248" width="31" height="31" transform="rotate(0,449.5,263.5)"/><rect x="434" y="279" width="31" height="31" transform="rotate(0,449.5,294.5)"/><rect x="434" y="341" width="31" height="31" transform="rotate(0,449.5,356.5)"/><rect x="434" y="403" width="31" height="31" transform="rotate(0,449.5,418.5)"/><rect x="434" y="496" width="31" height="31" transform="rotate(0,449.5,511.5)"/><rect x="434" y="527" width="31" height="31" transform="rotate(0,449.5,542.5)"/><rect x="434" y="558" width="31" height="31" transform="rotate(0,449.5,573.5)"/><rect x="434" y="589" width="31" height="31" transform="rotate(0,449.5,604.5)"/><rect x="434" y="620" width="31" height="31" transform="rotate(0,449.5,635.5)"/><rect x="434" y="682" width="31" height="31" transform="rotate(0,449.5,697.5)"/><rect x="434" y="713" width="31" height="31" transform="rotate(0,449.5,728.5)"/><rect x="434" y="775" width="31" height="31" transform="rotate(0,449.5,790.5)"/><rect x="434" y="868" width="31" height="31" transform="rotate(0,449.5,883.5)"/><rect x="434" y="899" width="31" height="31" transform="rotate(0,449.5,914.5)"/><rect x="434" y="930" width="31" height="31" transform="rotate(0,449.5,945.5)"/><rect x="465" y="62" width="31" height="31" transform="rotate(0,480.5,77.5)"/><rect x="465" y="93" width="31" height="31" transform="rotate(0,480.5,108.5)"/><rect x="465" y="124" width="31" height="31" transform="rotate(0,480.5,139.5)"/><rect x="465" y="310" width="31" height="31" transform="rotate(0,480.5,325.5)"/><rect x="465" y="341" width="31" height="31" transform="rotate(0,480.5,356.5)"/><rect x="465" y="434" width="31" height="31" transform="rotate(0,480.5,449.5)"/><rect x="465" y="465" width="31" height="31" transform="rotate(0,480.5,480.5)"/><rect x="465" y="527" width="31" height="31" transform="rotate(0,480.5,542.5)"/><rect x="465" y="651" width="31" height="31" transform="rotate(0,480.5,666.5)"/><rect x="465" y="744" width="31" height="31" transform="rotate(0,480.5,759.5)"/><rect x="465" y="775" width="31" height="31" transform="rotate(0,480.5,790.5)"/><rect x="465" y="837" width="31" height="31" transform="rotate(0,480.5,852.5)"/><rect x="465" y="868" width="31" height="31" transform="rotate(0,480.5,883.5)"/><rect x="465" y="899" width="31" height="31" transform="rotate(0,480.5,914.5)"/><rect x="465" y="930" width="31" height="31" transform="rotate(0,480.5,945.5)"/><rect x="496" y="93" width="31" height="31" transform="rotate(0,511.5,108.5)"/><rect x="496" y="186" width="31" height="31" transform="rotate(0,511.5,201.5)"/><rect x="496" y="248" width="31" height="31" transform="rotate(0,511.5,263.5)"/><rect x="496" y="341" width="31" height="31" transform="rotate(0,511.5,356.5)"/><rect x="496" y="372" width="31" height="31" transform="rotate(0,511.5,387.5)"/><rect x="496" y="465" width="31" height="31" transform="rotate(0,511.5,480.5)"/><rect x="496" y="527" width="31" height="31" transform="rotate(0,511.5,542.5)"/><rect x="496" y="558" width="31" height="31" transform="rotate(0,511.5,573.5)"/><rect x="496" y="589" width="31" height="31" transform="rotate(0,511.5,604.5)"/><rect x="496" y="620" width="31" height="31" transform="rotate(0,511.5,635.5)"/><rect x="496" y="651" width="31" height="31" transform="rotate(0,511.5,666.5)"/><rect x="496" y="682" width="31" height="31" transform="rotate(0,511.5,697.5)"/><rect x="496" y="713" width="31" height="31" transform="rotate(0,511.5,728.5)"/><rect x="496" y="744" width="31" height="31" transform="rotate(0,511.5,759.5)"/><rect x="496" y="775" width="31" height="31" transform="rotate(0,511.5,790.5)"/><rect x="496" y="806" width="31" height="31" transform="rotate(0,511.5,821.5)"/><rect x="496" y="837" width="31" height="31" transform="rotate(0,511.5,852.5)"/><rect x="496" y="930" width="31" height="31" transform="rotate(0,511.5,945.5)"/><rect x="527" y="62" width="31" height="31" transform="rotate(0,542.5,77.5)"/><rect x="527" y="93" width="31" height="31" transform="rotate(0,542.5,108.5)"/><rect x="527" y="186" width="31" height="31" transform="rotate(0,542.5,201.5)"/><rect x="527" y="279" width="31" height="31" transform="rotate(0,542.5,294.5)"/><rect x="527" y="341" width="31" height="31" transform="rotate(0,542.5,356.5)"/><rect x="527" y="496" width="31" height="31" transform="rotate(0,542.5,511.5)"/><rect x="527" y="558" width="31" height="31" transform="rotate(0,542.5,573.5)"/><rect x="527" y="589" width="31" height="31" transform="rotate(0,542.5,604.5)"/><rect x="527" y="620" width="31" height="31" transform="rotate(0,542.5,635.5)"/><rect x="527" y="806" width="31" height="31" transform="rotate(0,542.5,821.5)"/><rect x="527" y="837" width="31" height="31" transform="rotate(0,542.5,852.5)"/><rect x="527" y="899" width="31" height="31" transform="rotate(0,542.5,914.5)"/><rect x="558" y="93" width="31" height="31" transform="rotate(0,573.5,108.5)"/><rect x="558" y="124" width="31" height="31" transform="rotate(0,573.5,139.5)"/><rect x="558" y="186" width="31" height="31" transform="rotate(0,573.5,201.5)"/><rect x="558" y="248" width="31" height="31" transform="rotate(0,573.5,263.5)"/><rect x="558" y="496" width="31" height="31" transform="rotate(0,573.5,511.5)"/><rect x="558" y="558" width="31" height="31" transform="rotate(0,573.5,573.5)"/><rect x="558" y="589" width="31" height="31" transform="rotate(0,573.5,604.5)"/><rect x="558" y="620" width="31" height="31" transform="rotate(0,573.5,635.5)"/><rect x="558" y="682" width="31" height="31" transform="rotate(0,573.5,697.5)"/><rect x="558" y="713" width="31" height="31" transform="rotate(0,573.5,728.5)"/><rect x="558" y="837" width="31" height="31" transform="rotate(0,573.5,852.5)"/><rect x="558" y="899" width="31" height="31" transform="rotate(0,573.5,914.5)"/><rect x="589" y="186" width="31" height="31" transform="rotate(0,604.5,201.5)"/><rect x="589" y="217" width="31" height="31" transform="rotate(0,604.5,232.5)"/><rect x="589" y="279" width="31" height="31" transform="rotate(0,604.5,294.5)"/><rect x="589" y="372" width="31" height="31" transform="rotate(0,604.5,387.5)"/><rect x="589" y="403" width="31" height="31" transform="rotate(0,604.5,418.5)"/><rect x="589" y="496" width="31" height="31" transform="rotate(0,604.5,511.5)"/><rect x="589" y="558" width="31" height="31" transform="rotate(0,604.5,573.5)"/><rect x="589" y="589" width="31" height="31" transform="rotate(0,604.5,604.5)"/><rect x="589" y="682" width="31" height="31" transform="rotate(0,604.5,697.5)"/><rect x="589" y="775" width="31" height="31" transform="rotate(0,604.5,790.5)"/><rect x="620" y="62" width="31" height="31" transform="rotate(0,635.5,77.5)"/><rect x="620" y="248" width="31" height="31" transform="rotate(0,635.5,263.5)"/><rect x="620" y="341" width="31" height="31" transform="rotate(0,635.5,356.5)"/><rect x="620" y="372" width="31" height="31" transform="rotate(0,635.5,387.5)"/><rect x="620" y="434" width="31" height="31" transform="rotate(0,635.5,449.5)"/><rect x="620" y="465" width="31" height="31" transform="rotate(0,635.5,480.5)"/><rect x="620" y="496" width="31" height="31" transform="rotate(0,635.5,511.5)"/><rect x="620" y="527" width="31" height="31" transform="rotate(0,635.5,542.5)"/><rect x="620" y="558" width="31" height="31" transform="rotate(0,635.5,573.5)"/><rect x="620" y="589" width="31" height="31" transform="rotate(0,635.5,604.5)"/><rect x="620" y="744" width="31" height="31" transform="rotate(0,635.5,759.5)"/><rect x="651" y="124" width="31" height="31" transform="rotate(0,666.5,139.5)"/><rect x="651" y="279" width="31" height="31" transform="rotate(0,666.5,294.5)"/><rect x="651" y="310" width="31" height="31" transform="rotate(0,666.5,325.5)"/><rect x="651" y="341" width="31" height="31" transform="rotate(0,666.5,356.5)"/><rect x="651" y="403" width="31" height="31" transform="rotate(0,666.5,418.5)"/><rect x="651" y="434" width="31" height="31" transform="rotate(0,666.5,449.5)"/><rect x="651" y="465" width="31" height="31" transform="rotate(0,666.5,480.5)"/><rect x="651" y="589" width="31" height="31" transform="rotate(0,666.5,604.5)"/><rect x="651" y="682" width="31" height="31" transform="rotate(0,666.5,697.5)"/><rect x="651" y="713" width="31" height="31" transform="rotate(0,666.5,728.5)"/><rect x="651" y="744" width="31" height="31" transform="rotate(0,666.5,759.5)"/><rect x="651" y="837" width="31" height="31" transform="rotate(0,666.5,852.5)"/><rect x="651" y="868" width="31" height="31" transform="rotate(0,666.5,883.5)"/><rect x="651" y="930" width="31" height="31" transform="rotate(0,666.5,945.5)"/><rect x="682" y="93" width="31" height="31" transform="rotate(0,697.5,108.5)"/><rect x="682" y="248" width="31" height="31" transform="rotate(0,697.5,263.5)"/><rect x="682" y="372" width="31" height="31" transform="rotate(0,697.5,387.5)"/><rect x="682" y="403" width="31" height="31" transform="rotate(0,697.5,418.5)"/><rect x="682" y="465" width="31" height="31" transform="rotate(0,697.5,480.5)"/><rect x="682" y="496" width="31" height="31" transform="rotate(0,697.5,511.5)"/><rect x="682" y="558" width="31" height="31" transform="rotate(0,697.5,573.5)"/><rect x="682" y="589" width="31" height="31" transform="rotate(0,697.5,604.5)"/><rect x="682" y="620" width="31" height="31" transform="rotate(0,697.5,635.5)"/><rect x="682" y="651" width="31" height="31" transform="rotate(0,697.5,666.5)"/><rect x="682" y="682" width="31" height="31" transform="rotate(0,697.5,697.5)"/><rect x="682" y="713" width="31" height="31" transform="rotate(0,697.5,728.5)"/><rect x="682" y="744" width="31" height="31" transform="rotate(0,697.5,759.5)"/><rect x="682" y="775" width="31" height="31" transform="rotate(0,697.5,790.5)"/><rect x="682" y="806" width="31" height="31" transform="rotate(0,697.5,821.5)"/><rect x="682" y="837" width="31" height="31" transform="rotate(0,697.5,852.5)"/><rect x="682" y="868" width="31" height="31" transform="rotate(0,697.5,883.5)"/><rect x="713" y="310" width="31" height="31" transform="rotate(0,728.5,325.5)"/><rect x="713" y="403" width="31" height="31" transform="rotate(0,728.5,418.5)"/><rect x="713" y="496" width="31" height="31" transform="rotate(0,728.5,511.5)"/><rect x="713" y="620" width="31" height="31" transform="rotate(0,728.5,635.5)"/><rect x="713" y="651" width="31" height="31" transform="rotate(0,728.5,666.5)"/><rect x="713" y="682" width="31" height="31" transform="rotate(0,728.5,697.5)"/><rect x="713" y="806" width="31" height="31" transform="rotate(0,728.5,821.5)"/><rect x="713" y="837" width="31" height="31" transform="rotate(0,728.5,852.5)"/><rect x="713" y="930" width="31" height="31" transform="rotate(0,728.5,945.5)"/><rect x="744" y="372" width="31" height="31" transform="rotate(0,759.5,387.5)"/><rect x="744" y="403" width="31" height="31" transform="rotate(0,759.5,418.5)"/><rect x="744" y="434" width="31" height="31" transform="rotate(0,759.5,449.5)"/><rect x="744" y="465" width="31" height="31" transform="rotate(0,759.5,480.5)"/><rect x="744" y="496" width="31" height="31" transform="rotate(0,759.5,511.5)"/><rect x="744" y="558" width="31" height="31" transform="rotate(0,759.5,573.5)"/><rect x="744" y="589" width="31" height="31" transform="rotate(0,759.5,604.5)"/><rect x="744" y="651" width="31" height="31" transform="rotate(0,759.5,666.5)"/><rect x="744" y="682" width="31" height="31" transform="rotate(0,759.5,697.5)"/><rect x="744" y="744" width="31" height="31" transform="rotate(0,759.5,759.5)"/><rect x="744" y="806" width="31" height="31" transform="rotate(0,759.5,821.5)"/><rect x="744" y="868" width="31" height="31" transform="rotate(0,759.5,883.5)"/><rect x="775" y="310" width="31" height="31" transform="rotate(0,790.5,325.5)"/><rect x="775" y="341" width="31" height="31" transform="rotate(0,790.5,356.5)"/><rect x="775" y="403" width="31" height="31" transform="rotate(0,790.5,418.5)"/><rect x="775" y="527" width="31" height="31" transform="rotate(0,790.5,542.5)"/><rect x="775" y="620" width="31" height="31" transform="rotate(0,790.5,635.5)"/><rect x="775" y="682" width="31" height="31" transform="rotate(0,790.5,697.5)"/><rect x="775" y="806" width="31" height="31" transform="rotate(0,790.5,821.5)"/><rect x="775" y="899" width="31" height="31" transform="rotate(0,790.5,914.5)"/><rect x="806" y="341" width="31" height="31" transform="rotate(0,821.5,356.5)"/><rect x="806" y="403" width="31" height="31" transform="rotate(0,821.5,418.5)"/><rect x="806" y="434" width="31" height="31" transform="rotate(0,821.5,449.5)"/><rect x="806" y="465" width="31" height="31" transform="rotate(0,821.5,480.5)"/><rect x="806" y="620" width="31" height="31" transform="rotate(0,821.5,635.5)"/><rect x="806" y="682" width="31" height="31" transform="rotate(0,821.5,697.5)"/><rect x="806" y="713" width="31" height="31" transform="rotate(0,821.5,728.5)"/><rect x="806" y="744" width="31" height="31" transform="rotate(0,821.5,759.5)"/><rect x="806" y="775" width="31" height="31" transform="rotate(0,821.5,790.5)"/><rect x="806" y="806" width="31" height="31" transform="rotate(0,821.5,821.5)"/><rect x="806" y="837" width="31" height="31" transform="rotate(0,821.5,852.5)"/><rect x="806" y="868" width="31" height="31" transform="rotate(0,821.5,883.5)"/><rect x="806" y="930" width="31" height="31" transform="rotate(0,821.5,945.5)"/><rect x="837" y="310" width="31" height="31" transform="rotate(0,852.5,325.5)"/><rect x="837" y="372" width="31" height="31" transform="rotate(0,852.5,387.5)"/><rect x="837" y="403" width="31" height="31" transform="rotate(0,852.5,418.5)"/><rect x="837" y="434" width="31" height="31" transform="rotate(0,852.5,449.5)"/><rect x="837" y="465" width="31" height="31" transform="rotate(0,852.5,480.5)"/><rect x="837" y="558" width="31" height="31" transform="rotate(0,852.5,573.5)"/><rect x="837" y="620" width="31" height="31" transform="rotate(0,852.5,635.5)"/><rect x="837" y="651" width="31" height="31" transform="rotate(0,852.5,666.5)"/><rect x="837" y="806" width="31" height="31" transform="rotate(0,852.5,821.5)"/><rect x="837" y="899" width="31" height="31" transform="rotate(0,852.5,914.5)"/><rect x="868" y="310" width="31" height="31" transform="rotate(0,883.5,325.5)"/><rect x="868" y="341" width="31" height="31" transform="rotate(0,883.5,356.5)"/><rect x="868" y="403" width="31" height="31" transform="rotate(0,883.5,418.5)"/><rect x="868" y="496" width="31" height="31" transform="rotate(0,883.5,511.5)"/><rect x="868" y="527" width="31" height="31" transform="rotate(0,883.5,542.5)"/><rect x="868" y="558" width="31" height="31" transform="rotate(0,883.5,573.5)"/><rect x="868" y="682" width="31" height="31" transform="rotate(0,883.5,697.5)"/><rect x="868" y="775" width="31" height="31" transform="rotate(0,883.5,790.5)"/><rect x="868" y="868" width="31" height="31" transform="rotate(0,883.5,883.5)"/><rect x="868" y="930" width="31" height="31" transform="rotate(0,883.5,945.5)"/><rect x="899" y="310" width="31" height="31" transform="rotate(0,914.5,325.5)"/><rect x="899" y="341" width="31" height="31" transform="rotate(0,914.5,356.5)"/><rect x="899" y="372" width="31" height="31" transform="rotate(0,914.5,387.5)"/><rect x="899" y="403" width="31" height="31" transform="rotate(0,914.5,418.5)"/><rect x="899" y="496" width="31" height="31" transform="rotate(0,914.5,511.5)"/><rect x="899" y="558" width="31" height="31" transform="rotate(0,914.5,573.5)"/><rect x="899" y="651" width="31" height="31" transform="rotate(0,914.5,666.5)"/><rect x="899" y="682" width="31" height="31" transform="rotate(0,914.5,697.5)"/><rect x="899" y="744" width="31" height="31" transform="rotate(0,914.5,759.5)"/><rect x="899" y="806" width="31" height="31" transform="rotate(0,914.5,821.5)"/><rect x="899" y="837" width="31" height="31" transform="rotate(0,914.5,852.5)"/><rect x="899" y="899" width="31" height="31" transform="rotate(0,914.5,914.5)"/><rect x="930" y="341" width="31" height="31" transform="rotate(0,945.5,356.5)"/><rect x="930" y="403" width="31" height="31" transform="rotate(0,945.5,418.5)"/><rect x="930" y="434" width="31" height="31" transform="rotate(0,945.5,449.5)"/><rect x="930" y="465" width="31" height="31" transform="rotate(0,945.5,480.5)"/><rect x="930" y="496" width="31" height="31" transform="rotate(0,945.5,511.5)"/><rect x="930" y="527" width="31" height="31" transform="rotate(0,945.5,542.5)"/><rect x="930" y="620" width="31" height="31" transform="rotate(0,945.5,635.5)"/><rect x="930" y="682" width="31" height="31" transform="rotate(0,945.5,697.5)"/><rect x="930" y="713" width="31" height="31" transform="rotate(0,945.5,728.5)"/><rect x="930" y="775" width="31" height="31" transform="rotate(0,945.5,790.5)"/><rect x="930" y="899" width="31" height="31" transform="rotate(0,945.5,914.5)"/></clipPath><clipPath id="clip-path-corners-square-color-0-0"><rect x="62" y="62" width="31" height="31" transform="rotate(0,77.5,77.5)"/><rect x="62" y="93" width="31" height="31" transform="rotate(0,77.5,108.5)"/><rect x="62" y="124" width="31" height="31" transform="rotate(0,77.5,139.5)"/><rect x="62" y="155" width="31" height="31" transform="rotate(0,77.5,170.5)"/><rect x="62" y="186" width="31" height="31" transform="rotate(0,77.5,201.5)"/><rect x="62" y="217" width="31" height="31" transform="rotate(0,77.5,232.5)"/><rect x="62" y="248" width="31" height="31" transform="rotate(0,77.5,263.5)"/><rect x="93" y="62" width="31" height="31" transform="rotate(0,108.5,77.5)"/><rect x="93" y="248" width="31" height="31" transform="rotate(0,108.5,263.5)"/><rect x="124" y="62" width="31" height="31" transform="rotate(0,139.5,77.5)"/><rect x="124" y="248" width="31" height="31" transform="rotate(0,139.5,263.5)"/><rect x="155" y="62" width="31" height="31" transform="rotate(0,170.5,77.5)"/><rect x="155" y="248" width="31" height="31" transform="rotate(0,170.5,263.5)"/><rect x="186" y="62" width="31" height="31" transform="rotate(0,201.5,77.5)"/><rect x="186" y="248" width="31" height="31" transform="rotate(0,201.5,263.5)"/><rect x="217" y="62" width="31" height="31" transform="rotate(0,232.5,77.5)"/><rect x="217" y="248" width="31" height="31" transform="rotate(0,232.5,263.5)"/><rect x="248" y="62" width="31" height="31" transform="rotate(0,263.5,77.5)"/><rect x="248" y="93" width="31" height="31" transform="rotate(0,263.5,108.5)"/><rect x="248" y="124" width="31" height="31" transform="rotate(0,263.5,139.5)"/><rect x="248" y="155" width="31" height="31" transform="rotate(0,263.5,170.5)"/><rect x="248" y="186" width="31" height="31" transform="rotate(0,263.5,201.5)"/><rect x="248" y="217" width="31" height="31" transform="rotate(0,263.5,232.5)"/><rect x="248" y="248" width="31" height="31" transform="rotate(0,263.5,263.5)"/></clipPath><clipPath id="clip-path-corners-dot-color-0-0"><rect x="124" y="124" width="31" height="31" transform="rotate(0,139.5,139.5)"/><rect x="124" y="155" width="31" height="31" transform="rotate(0,139.5,170.5)"/><rect x="124" y="186" width="31" height="31" transform="rotate(0,139.5,201.5)"/><rect x="155" y="124" width="31" height="31" transform="rotate(0,170.5,139.5)"/><rect x="155" y="155" width="31" height="31" transform="rotate(0,170.5,170.5)"/><rect x="155" y="186" width="31" height="31" transform="rotate(0,170.5,201.5)"/><rect x="186" y="124" width="31" height="31" transform="rotate(0,201.5,139.5)"/><rect x="186" y="155" width="31" height="31" transform="rotate(0,201.5,170.5)"/><rect x="186" y="186" width="31" height="31" transform="rotate(0,201.5,201.5)"/></clipPath><clipPath id="clip-path-corners-square-color-1-0"><rect x="744" y="62" width="31" height="31" transform="rotate(0,759.5,77.5)"/><rect x="744" y="93" width="31" height="31" transform="rotate(0,759.5,108.5)"/><rect x="744" y="124" width="31" height="31" transform="rotate(0,759.5,139.5)"/><rect x="744" y="155" width="31" height="31" transform="rotate(0,759.5,170.5)"/><rect x="744" y="186" width="31" height="31" transform="rotate(0,759.5,201.5)"/><rect x="744" y="217" width="31" height="31" transform="rotate(0,759.5,232.5)"/><rect x="744" y="248" width="31" height="31" transform="rotate(0,759.5,263.5)"/><rect x="775" y="62" width="31" height="31" transform="rotate(0,790.5,77.5)"/><rect x="775" y="248" width="31" height="31" transform="rotate(0,790.5,263.5)"/><rect x="806" y="62" width="31" height="31" transform="rotate(0,821.5,77.5)"/><rect x="806" y="248" width="31" height="31" transform="rotate(0,821.5,263.5)"/><rect x="837" y="62" width="31" height="31" transform="rotate(0,852.5,77.5)"/><rect x="837" y="248" width="31" height="31" transform="rotate(0,852.5,263.5)"/><rect x="868" y="62" width="31" height="31" transform="rotate(0,883.5,77.5)"/><rect x="868" y="248" width="31" height="31" transform="rotate(0,883.5,263.5)"/><rect x="899" y="62" width="31" height="31" transform="rotate(0,914.5,77.5)"/><rect x="899" y="248" width="31" height="31" transform="rotate(0,914.5,263.5)"/><rect x="930" y="62" width="31" height="31" transform="rotate(0,945.5,77.5)"/><rect x="930" y="93" width="31" height="31" transform="rotate(0,945.5,108.5)"/><rect x="930" y="124" width="31" height="31" transform="rotate(0,945.5,139.5)"/><rect x="930" y="155" width="31" height="31" transform="rotate(0,945.5,170.5)"/><rect x="930" y="186" width="31" height="31" transform="rotate(0,945.5,201.5)"/><rect x="930" y="217" width="31" height="31" transform="rotate(0,945.5,232.5)"/><rect x="930" y="248" width="31" height="31" transform="rotate(0,945.5,263.5)"/></clipPath><clipPath id="clip-path-corners-dot-color-1-0"><rect x="806" y="124" width="31" height="31" transform="rotate(0,821.5,139.5)"/><rect x="806" y="155" width="31" height="31" transform="rotate(0,821.5,170.5)"/><rect x="806" y="186" width="31" height="31" transform="rotate(0,821.5,201.5)"/><rect x="837" y="124" width="31" height="31" transform="rotate(0,852.5,139.5)"/><rect x="837" y="155" width="31" height="31" transform="rotate(0,852.5,170.5)"/><rect x="837" y="186" width="31" height="31" transform="rotate(0,852.5,201.5)"/><rect x="868" y="124" width="31" height="31" transform="rotate(0,883.5,139.5)"/><rect x="868" y="155" width="31" height="31" transform="rotate(0,883.5,170.5)"/><rect x="868" y="186" width="31" height="31" transform="rotate(0,883.5,201.5)"/></clipPath><clipPath id="clip-path-corners-square-color-0-1"><rect x="62" y="744" width="31" height="31" transform="rotate(0,77.5,759.5)"/><rect x="62" y="775" width="31" height="31" transform="rotate(0,77.5,790.5)"/><rect x="62" y="806" width="31" height="31" transform="rotate(0,77.5,821.5)"/><rect x="62" y="837" width="31" height="31" transform="rotate(0,77.5,852.5)"/><rect x="62" y="868" width="31" height="31" transform="rotate(0,77.5,883.5)"/><rect x="62" y="899" width="31" height="31" transform="rotate(0,77.5,914.5)"/><rect x="62" y="930" width="31" height="31" transform="rotate(0,77.5,945.5)"/><rect x="93" y="744" width="31" height="31" transform="rotate(0,108.5,759.5)"/><rect x="93" y="930" width="31" height="31" transform="rotate(0,108.5,945.5)"/><rect x="124" y="744" width="31" height="31" transform="rotate(0,139.5,759.5)"/><rect x="124" y="930" width="31" height="31" transform="rotate(0,139.5,945.5)"/><rect x="155" y="744" width="31" height="31" transform="rotate(0,170.5,759.5)"/><rect x="155" y="930" width="31" height="31" transform="rotate(0,170.5,945.5)"/><rect x="186" y="744" width="31" height="31" transform="rotate(0,201.5,759.5)"/><rect x="186" y="930" width="31" height="31" transform="rotate(0,201.5,945.5)"/><rect x="217" y="744" width="31" height="31" transform="rotate(0,232.5,759.5)"/><rect x="217" y="930" width="31" height="31" transform="rotate(0,232.5,945.5)"/><rect x="248" y="744" width="31" height="31" transform="rotate(0,263.5,759.5)"/><rect x="248" y="775" width="31" height="31" transform="rotate(0,263.5,790.5)"/><rect x="248" y="806" width="31" height="31" transform="rotate(0,263.5,821.5)"/><rect x="248" y="837" width="31" height="31" transform="rotate(0,263.5,852.5)"/><rect x="248" y="868" width="31" height="31" transform="rotate(0,263.5,883.5)"/><rect x="248" y="899" width="31" height="31" transform="rotate(0,263.5,914.5)"/><rect x="248" y="930" width="31" height="31" transform="rotate(0,263.5,945.5)"/></clipPath><clipPath id="clip-path-corners-dot-color-0-1"><rect x="124" y="806" width="31" height="31" transform="rotate(0,139.5,821.5)"/><rect x="124" y="837" width="31" height="31" transform="rotate(0,139.5,852.5)"/><rect x="124" y="868" width="31" height="31" transform="rotate(0,139.5,883.5)"/><rect x="155" y="806" width="31" height="31" transform="rotate(0,170.5,821.5)"/><rect x="155" y="837" width="31" height="31" transform="rotate(0,170.5,852.5)"/><rect x="155" y="868" width="31" height="31" transform="rotate(0,170.5,883.5)"/><rect x="186" y="806" width="31" height="31" transform="rotate(0,201.5,821.5)"/><rect x="186" y="837" width="31" height="31" transform="rotate(0,201.5,852.5)"/><rect x="186" y="868" width="31" height="31" transform="rotate(0,201.5,883.5)"/></clipPath></defs><rect x="0" y="0" height="1024" width="1024" clip-path="url('#clip-path-background-color')" fill="#ffffff"/><rect x="62" y="62" height="899" width="899" clip-path="url('#clip-path-dot-color')" fill="#000000"/><rect x="62" y="62" height="217" width="217" clip-path="url('#clip-path-corners-square-color-0-0')" fill="#000000"/><rect x="124" y="124" height="93" width="93" clip-path="url('#clip-path-corners-dot-color-0-0')" fill="#000000"/><rect x="744" y="62" height="217" width="217" clip-path="url('#clip-path-corners-square-color-1-0')" fill="#000000"/><rect x="806" y="124" height="93" width="93" clip-path="url('#clip-path-corners-dot-color-1-0')" fill="#000000"/><rect x="62" y="744" height="217" width="217" clip-path="url('#clip-path-corners-square-color-0-1')" fill="#000000"/><rect x="124" y="806" height="93" width="93" clip-path="url('#clip-path-corners-dot-color-0-1')" fill="#000000"/></svg>